HIERARCHY
ROOT Hips
{
	OFFSET -0.001795 -0.223333 0.028219
	CHANNELS 6 Xposition Yposition Zposition Zrotation Yrotation Xrotation 
	JOINT LeftUpLeg
	{
		OFFSET 0.069520 -0.091406 -0.006815
		CHANNELS 3 Zrotation Yrotation Xrotation
		JOINT LeftLeg
		{
			OFFSET 0.034277 -0.375199 -0.004496
			CHANNELS 3 Zrotation Yrotation Xrotation
			JOINT LeftFoot
			{
				OFFSET -0.013596 -0.397961 -0.043693
				CHANNELS 3 Zrotation Yrotation Xrotation
				JOINT LeftToe
				{
					OFFSET 0.026358 -0.055791 0.119288
					CHANNELS 3 Zrotation Yrotation Xrotation
					End Site
					{
						OFFSET 0.000000 0.000000 0.000000
					}
				}
			}
		}
	}
	JOINT RightUpLeg
	{
		OFFSET -0.067670 -0.090522 -0.004320
		CHANNELS 3 Zrotation Yrotation Xrotation
		JOINT RightLeg
		{
			OFFSET -0.038290 -0.382569 -0.008850
			CHANNELS 3 Zrotation Yrotation Xrotation
			JOINT RightFoot
			{
				OFFSET 0.015774 -0.398415 -0.042312
				CHANNELS 3 Zrotation Yrotation Xrotation
				JOINT RightToe
				{
					OFFSET -0.025372 -0.048144 0.123348
					CHANNELS 3 Zrotation Yrotation Xrotation
					End Site
					{
						OFFSET 0.000000 0.000000 0.000000
					}
				}
			}
		}
	}
	JOINT Spine
	{
		OFFSET -0.002533 0.108963 -0.026696
		CHANNELS 3 Zrotation Yrotation Xrotation
		JOINT Spine1
		{
			OFFSET 0.005487 0.135180 0.001092
			CHANNELS 3 Zrotation Yrotation Xrotation
			JOINT Spine2
			{
				OFFSET 0.001457 0.052922 0.025425
				CHANNELS 3 Zrotation Yrotation Xrotation
				JOINT Neck
				{
					OFFSET -0.002778 0.213870 -0.042857
					CHANNELS 3 Zrotation Yrotation Xrotation
					JOINT Head
					{
						OFFSET 0.005152 0.064970 0.051349
						CHANNELS 3 Zrotation Yrotation Xrotation
						End Site
						{
							OFFSET 0.000000 0.000000 0.000000
						}
					}
				}
				JOINT LeftShoulder
				{
					OFFSET 0.078845 0.121749 -0.034090
					CHANNELS 3 Zrotation Yrotation Xrotation
					JOINT LeftArm
					{
						OFFSET 0.090977 0.030469 -0.008868
						CHANNELS 3 Zrotation Yrotation Xrotation
						JOINT LeftForeArm
						{
							OFFSET 0.259612 -0.012772 -0.027456
							CHANNELS 3 Zrotation Yrotation Xrotation
							JOINT LeftHand
							{
								OFFSET 0.249234 0.008986 -0.001171
								CHANNELS 3 Zrotation Yrotation Xrotation
								End Site
								{
									OFFSET 0.000000 0.000000 0.000000
								}
							}
						}
					}
				}
				JOINT RightShoulder
				{
					OFFSET -0.081759 0.118833 -0.038615
					CHANNELS 3 Zrotation Yrotation Xrotation
					JOINT RightArm
					{
						OFFSET -0.096012 0.032551 -0.009143
						CHANNELS 3 Zrotation Yrotation Xrotation
						JOINT RightForeArm
						{
							OFFSET -0.253742 -0.013329 -0.021401
							CHANNELS 3 Zrotation Yrotation Xrotation
							JOINT RightHand
							{
								OFFSET -0.255298 0.007772 -0.005559
								CHANNELS 3 Zrotation Yrotation Xrotation
								End Site
								{
									OFFSET 0.000000 0.000000 0.000000
								}
							}
						}
					}
				}
			}
		}
	}
}
MOTION
Frames: 8
Frame Time: 0.050000
-0.007581 0.951522 -0.039440 1.443724 13.097398 -0.773477 8.940751 -0.591624 -10.520498 -5.300678 0.108153 17.903075 5.605375 15.488962 15.950464 0.000000 0.000000 0.000000 2.755095 -0.048381 0.348019 2.933819 -0.399165 1.390831 -10.170172 -22.775097 12.728536 0.000000 0.000000 0.000000 8.387787 -1.260270 9.475418 -8.892416 3.261086 -20.471609 -1.024348 9.549315 28.055465 15.249057 -5.867229 -22.145021 0.000000 0.000000 0.000000 -19.595574 -13.239036 1.027062 -29.972175 1.307622 -3.928350 -121.496871 -61.223512 90.340142 0.000000 0.000000 0.000000 31.303297 -2.385883 3.777011 37.959875 11.321882 -4.700044 102.487654 62.753147 87.143571 0.000000 0.000000 0.000000 
-0.008817 0.950205 -0.036182 1.704973 13.647958 -1.064324 8.641584 -0.720132 -13.102947 -5.875432 -0.017570 23.011248 6.465825 16.785643 16.574036 0.000000 0.000000 0.000000 2.445852 -0.123383 0.958310 3.303039 -0.461907 1.377337 -10.400313 -23.297873 12.251629 0.000000 0.000000 0.000000 8.630922 -1.452645 10.670158 -9.467243 3.397042 -20.753642 -0.714212 8.858715 28.251780 14.558981 -5.737186 -21.166319 0.000000 0.000000 0.000000 -19.937283 -13.157232 1.059085 -29.890755 0.759883 -3.843053 -123.118607 -62.065205 93.524741 0.000000 0.000000 0.000000 31.049921 -2.681280 3.371629 38.232289 11.677633 -4.577742 103.553113 62.169169 87.673978 0.000000 0.000000 0.000000 
-0.009552 0.948535 -0.031353 1.802082 13.631456 -1.469459 8.671836 -0.892780 -16.636458 -7.055718 -0.019554 29.950696 7.171324 17.956495 18.672396 0.000000 0.000000 0.000000 2.253677 -0.197598 1.547390 3.682584 -0.523895 1.725221 -10.356600 -23.420742 11.440999 0.000000 0.000000 0.000000 8.622095 -1.640081 12.046432 -8.990527 3.298572 -20.640289 -0.926471 9.023560 27.803421 13.682453 -5.453680 -19.774874 0.000000 0.000000 0.000000 -20.288246 -13.014756 0.869589 -29.834425 0.524209 -3.723064 -124.739451 -61.632049 94.960621 0.000000 0.000000 0.000000 30.682376 -2.478377 3.495234 39.214931 11.353753 -4.657992 103.619618 61.733815 87.556316 0.000000 0.000000 0.000000 
-0.009402 0.947289 -0.024567 1.943584 13.111046 -1.811959 9.190806 -1.046930 -20.671271 -8.826980 0.395329 36.779727 7.531236 18.669263 22.390056 0.000000 0.000000 0.000000 1.851831 -0.188932 1.517217 4.206416 -0.621983 3.293253 -10.139252 -23.228760 10.516191 0.000000 0.000000 0.000000 8.887138 -1.877048 13.521652 -9.701670 3.493721 -20.570902 -0.558686 9.028322 26.959339 12.353520 -4.978744 -18.120864 0.000000 0.000000 0.000000 -20.644374 -12.512395 0.673437 -29.408521 0.089869 -3.549056 -126.822907 -62.049310 98.273164 0.000000 0.000000 0.000000 30.293173 -2.399137 3.231497 38.822601 10.937119 -4.589762 103.428875 60.296299 85.290590 0.000000 0.000000 0.000000 
-0.008027 0.946531 -0.015378 2.224315 11.946290 -2.288682 9.539780 -1.143015 -24.263353 -9.946390 0.993998 40.538255 7.652311 18.948658 26.460461 0.000000 0.000000 0.000000 1.355960 -0.229400 1.885561 4.391007 -0.659934 4.738402 -9.615492 -22.449760 9.542069 0.000000 0.000000 0.000000 9.078813 -1.985489 14.304044 -9.856397 3.535996 -20.404795 -0.366657 10.166382 26.861221 12.164237 -4.670828 -18.427831 0.000000 0.000000 0.000000 -21.490416 -12.618001 0.442675 -28.293477 -0.425499 -3.189687 -129.691558 -62.080536 101.899383 0.000000 0.000000 0.000000 29.929812 -1.687783 3.819995 38.106637 12.177107 -4.217130 101.703119 61.063886 84.284584 0.000000 0.000000 0.000000 
-0.005551 0.945162 -0.003577 2.704029 11.351236 -3.147362 9.191753 -1.355296 -27.367333 -10.480992 1.395184 41.035756 7.816546 18.964421 24.656352 0.000000 0.000000 0.000000 0.935669 -0.393614 3.296478 4.045759 -0.597612 5.523207 -9.340259 -22.148390 8.511880 0.000000 0.000000 0.000000 8.607914 -2.082016 15.699013 -9.926959 3.508740 -21.169410 0.116575 11.032474 26.963138 12.406200 -5.259474 -16.786177 0.000000 0.000000 0.000000 -21.490153 -13.300838 0.695500 -28.264905 -1.285911 -2.989973 -132.715390 -62.766397 106.410341 0.000000 0.000000 0.000000 29.417353 -0.653165 4.596966 37.483517 14.461762 -3.567890 99.270321 62.146752 82.862148 0.000000 0.000000 0.000000 
-0.002091 0.944047 0.010517 2.675322 11.000393 -3.912519 8.792291 -1.528149 -29.137690 -9.339550 1.052763 37.287233 6.563081 17.109383 20.455794 0.000000 0.000000 0.000000 0.962425 -0.542309 4.496129 3.818701 -0.562889 6.567879 -9.194880 -21.989392 8.012526 0.000000 0.000000 0.000000 8.303857 -2.149298 16.664593 -10.066207 3.610973 -20.510313 0.390792 11.807718 25.864943 11.971982 -5.333159 -15.066556 0.000000 0.000000 0.000000 -21.086729 -13.966805 0.971048 -27.771136 -3.042961 -2.511853 -134.781096 -63.550570 109.705336 0.000000 0.000000 0.000000 29.213248 0.818055 5.640231 36.605982 16.639035 -2.850975 96.410165 63.474208 80.974390 0.000000 0.000000 0.000000 
0.002779 0.941842 0.027298 2.771313 10.711706 -4.578463 8.412130 -1.687680 -30.506223 -7.662382 0.601520 31.389085 5.041370 15.308797 21.111600 0.000000 0.000000 0.000000 0.727575 -0.690519 5.762702 3.693720 -0.548632 7.709737 -9.085812 -21.938966 7.261310 0.000000 0.000000 0.000000 7.870660 -2.183006 17.568039 -10.312551 3.743571 -19.879057 0.656741 12.915019 24.949083 12.485032 -5.458168 -15.503753 0.000000 0.000000 0.000000 -20.841521 -14.544684 1.037404 -27.323246 -3.777603 -2.207409 -136.314331 -64.825136 112.687152 0.000000 0.000000 0.000000 28.906618 1.737010 6.432473 36.898942 18.867247 -2.155275 93.252651 64.640238 79.188073 0.000000 0.000000 0.000000 
